<svg width="107" height="224" viewBox="0 0 107 224" fill="none" xmlns="http://www.w3.org/2000/svg">
<g clip-path="url(#clip0_30623_3305)">
<path d="M51.1995 0.0458984C52.2058 0.0999789 53.172 0.102316 54.165 0.0991444C59.4045 0.082286 69.726 0.91419 73.3563 5.03365C73.8587 5.59983 74.2472 6.25781 74.4983 6.9712C75.3892 9.46074 77.1206 20.4504 77.2897 23.2479C77.3734 23.7772 77.4572 24.1369 77.412 24.6724C77.6564 26.9903 78.4233 32.692 77.849 34.7325C78.7783 35.6362 81.2633 35.3798 82.057 36.7986C82.1139 36.8634 82.1709 36.9283 82.2278 36.9932C88.0651 40.8668 93.3531 45.6631 95.5467 52.5278C95.8464 53.4676 96.2835 54.4415 96.3354 55.469L96.543 55.8651C97.4573 58.7661 98.9526 64.3558 100.619 66.8019C102.096 68.419 104.252 68.9743 105.116 71.1816C107.188 76.4685 107.106 82.3884 106.344 87.9444C106.178 89.1522 106.349 92.1815 105.153 92.9592C104.735 93.7515 103.186 94.6201 102.343 94.8151C103.613 104.591 101.185 117.226 101.66 127.313C101.741 128.988 101.155 137.421 100.788 138.572C100.867 138.872 100.629 141.954 100.456 142.249C100.371 142.956 100.152 145.798 99.9958 146.324C99.8435 147.157 100.026 148.335 99.8401 148.755C99.4432 149.943 99.0481 155.214 99.0715 156.563L98.7986 157.072C98.668 160.692 97.7034 164.193 97.1542 167.698C96.3103 173.084 95.5584 178.502 94.7915 183.9C93.9074 189.352 92.9027 194.668 92.1207 200.133C91.9532 201.086 91.0055 202.329 90.8397 203.341C90.4395 205.656 90.272 207.799 89.4817 210.043C88.7851 211.982 87.6414 213.73 86.1444 215.148C84.8768 216.339 83.7901 216.854 82.2663 217.769C74.7998 222.249 65.7374 222.957 57.2427 223.558C57.0853 223.569 56.7403 223.523 56.588 223.503L56.454 223.668L56.3921 223.658C55.9182 222.598 55.7156 223.681 54.741 223.336L54.6405 223.057L55.2316 222.775L55.2768 222.578L54.818 222.286C54.2671 222.269 52.2695 222.484 51.8458 222.8L51.8006 223.257L51.4958 223.281C51.4322 222.812 51.526 223.002 51.2715 222.665C50.4007 222.568 47.0049 222.074 46.4188 222.338C45.9081 223.257 46.0052 223.14 45.0474 222.92L44.7661 223.124C44.1298 223.221 43.9272 223.321 43.398 223.032C34.5868 221.66 19.3891 219.308 16.8305 209.347C15.4373 203.923 14.0107 197.339 13.0177 191.792C12.7381 190.228 12.1805 188.145 12.1888 186.593L12.0984 186.15C11.2327 184.506 11.221 178.439 10.804 176.329C9.02237 167.311 7.54212 158.184 6.84553 149.008C6.65129 146.444 5.33681 141.192 5.6851 138.927L5.67171 138.734C5.51263 136.99 4.84284 131.994 5.40547 130.539C5.1409 129.897 5.06387 124.131 4.80934 122.337C4.85456 121.417 4.56488 120.031 4.52804 119.006C4.44934 116.707 4.35557 114.269 4.50795 111.981C4.38069 111.639 4.52133 110.354 4.55985 109.929C4.44431 107.362 4.74739 103.014 3.99219 100.893C4.19146 100.518 4.02736 99.1634 3.99387 98.6705C4.62013 95.4031 5.01698 94.7139 2.39975 93.6055C1.19411 93.0949 0.659964 89.5872 0.423861 88.1331C0.522656 86.2882 -0.06175 84.5885 0.164306 82.5602C0.0487664 78.8388 -0.418409 73.4076 2.16031 70.1213L2.64256 69.7256C2.92723 69.353 3.28891 69.0491 3.6372 68.7316C4.59333 67.6815 5.29495 67.7318 6.2176 66.5355C6.50896 66.0089 6.80366 65.5572 7.12851 65.0535C7.17707 64.5097 8.00093 63.2742 8.20522 62.2717C8.09972 61.6189 9.83784 56.0214 10.233 55.1803L10.2548 54.42C10.5529 54.0122 11.9795 50.3169 12.3379 49.5137C12.9323 48.1744 13.083 48.1937 13.7695 47.0367C14.014 46.3785 14.6754 45.9596 15.2113 44.9138C18.7746 40.8887 24.1899 35.8241 29.5148 34.5519C28.4214 31.3007 29.1397 24.8924 29.6638 21.384C30.851 13.4205 29.5181 3.09277 40.0641 2.01032L40.5932 1.77898C41.6967 1.43663 49.5266 0.0791145 50.4828 0.268563C50.806 0.0854572 50.816 0.121678 51.1995 0.0458984ZM68.5455 101.762C67.9075 101.898 67.72 101.821 67.0586 101.731C65.4829 102.083 65.2016 101.218 63.2324 101.827C61.8459 101.613 55.3756 102.702 53.1167 102.8C49.8833 103.066 46.8776 102.79 43.6391 102.565C41.5376 102.42 39.5751 101.816 37.4921 102.064C36.901 102.134 36.2898 101.449 34.6655 101.688C33.7797 101.236 33.3795 101.756 31.8155 101.093C30.4341 100.792 28.9522 100.357 27.5439 100.318C24.277 100.227 21.278 100.036 18.0562 99.3296C17.3647 99.1559 16.8757 98.9921 16.211 98.7608C14.0927 98.7014 11.504 97.2746 9.78593 97.2305C9.5515 97.4837 9.45607 97.5173 9.53142 97.9312C10.1275 101.151 10.3971 104.513 10.5713 107.797L11.869 130.773C12.0381 133.795 12.0917 137.091 12.4032 140.134C12.9156 145.113 14.0526 150.08 14.1999 155.129C14.2669 157.459 15.2883 160.479 15.4039 162.876C16.1524 166.703 16.7116 170.4 17.5489 174.211C17.8302 175.494 17.9256 178.512 18.1333 180.093C18.788 185.282 19.6152 190.45 20.6182 195.584C21 197.634 21.9561 200.305 22.4082 202.511C22.9441 205.119 23.1166 207.996 24.5951 210.138C25.5094 210.308 27.0047 211.513 27.9558 212.024C29.3155 212.755 30.7422 213.356 32.2158 213.822C36.0051 215.018 38.9706 215.242 42.6344 215.973C48.5286 217.151 52.0116 217.644 58.0163 216.619C62.5709 215.841 67.0519 216.06 71.5479 214.402C71.8058 214.256 72.4086 214.392 72.9662 214.15C73.2693 213.923 73.2157 213.942 73.5757 213.823C77.9193 212.388 79.7345 212.219 82.8289 208.769C83.0533 205.983 84.1501 202.421 84.907 199.734C85.1548 198.854 84.9036 198.621 85.3825 197.801L85.421 197.229C86.0239 194.154 86.2918 190.914 87.0336 187.858C87.5594 185.688 87.8357 183.657 88.194 181.465C88.6712 180.378 88.5657 176.448 88.7935 175.131C89.0614 173.573 89.6491 172.119 89.912 170.534C90.1649 169.237 89.9572 167.396 90.252 166.161C92.3367 157.386 92.8005 148.392 94.1267 139.5C94.2925 138.384 94.2506 136.921 94.3712 135.717C94.3226 132.426 95.2017 129.094 95.0628 125.802C95.0109 124.596 95.0276 123.319 95.1046 122.114C95.2821 120.836 95.3826 115.657 95.5467 114.985C96.0859 112.779 95.7962 98.7328 96.4241 97.853L96.3906 97.6778L96.1897 97.1484C95.1616 96.9578 91.3605 98.4836 89.9388 98.8696C86.5614 99.7872 83.2358 100.346 79.8333 101.11C78.5858 101.39 75.1715 101.219 74.222 101.527C73.1839 101.564 69.2069 101.873 68.5455 101.762ZM97.5025 72.8943C96.5614 72.35 96.3287 71.8297 95.6187 71.0951C91.7238 66.9017 91.394 60.4076 89.5286 55.1618C87.4974 49.4518 83.8788 45.6042 79.2438 41.8333C78.3396 41.5288 76.9582 40.3324 76.7355 39.3676C75.0811 38.9813 70.93 41.318 68.9993 41.6128C65.6319 42.1267 62.1356 42.6201 58.733 42.5547C58.368 42.8044 58.1536 42.6892 57.8371 42.5229C54.3525 43.1414 44.9854 42.2475 41.4924 41.2427C40.1177 41.0346 38.8853 41.0047 37.5373 40.6677C35.8276 40.2409 33.2991 38.9454 31.7268 38.6844C30.5798 38.9119 28.6742 40.5939 27.6913 41.3717C27.2325 41.8286 23.4146 45.2894 23.1568 45.3698C22.4484 45.9364 22.3563 46.498 21.4806 47.2488L20.9598 47.8482C19.6152 49.4704 18.1735 51.8633 17.3948 53.8104C16.638 55.9526 15.9598 58.1213 15.3603 60.3126C14.3941 63.7599 13.5988 67.652 11.2712 70.434L10.5847 71.1904L10.4725 71.3649C9.46277 72.9143 8.14326 73.2852 7.50862 74.1395C6.01833 76.1455 6.64293 83.0317 6.66469 85.7875L6.73166 87.2096C6.59602 90.5294 7.7732 89.4611 10.4273 90.3531C11.231 90.623 11.9661 91.2254 12.7531 91.5312C13.649 91.836 15.0489 91.7402 15.8928 92.3226L17.2709 92.5375C17.286 92.5439 23.1132 93.6944 23.351 93.7098C25.99 93.8799 29.0426 93.8941 31.7871 94.2751C33.3326 94.4896 34.9251 95.1918 36.397 95.0671C36.8692 95.2776 40.2366 95.5524 40.8076 95.4911C43.2172 96.0538 48.0949 95.748 50.7289 95.9701C51.0655 95.9985 52.8086 96.1986 52.9141 96.1883C53.4165 95.8939 54.7477 95.9116 55.4091 95.8076C64.1684 94.4334 73.0633 95.6942 81.7137 93.7308C86.2667 92.6974 90.6672 91.7774 95.031 90.0215C96.7423 89.3328 98.0953 90.1852 99.6191 88.2054C99.882 84.3176 100.162 77.9323 99.1736 74.272C98.4134 73.6132 98.4787 73.4722 97.5025 72.8943ZM34.3624 31.7082C34.3591 32.5952 34.1716 33.8048 34.4211 34.4721C36.1676 35.7275 48.033 36.0138 50.6318 36.3715C52.2862 36.5995 63.1202 36.2201 64.0244 35.8363C65.0056 35.5252 72.0787 34.9852 71.9062 33.3368C71.717 31.5181 71.2515 29.4134 71.3871 27.4343L71.3235 27.1424C71.1343 26.5256 71.069 25.8653 71.0003 25.2289C70.5516 21.1169 70.2686 17.0013 69.4062 12.9466C69.2639 12.2733 69.0462 10.3876 68.7498 9.91024C67.6078 8.07017 62.9929 7.82581 61.2967 7.25496L61.1141 7.19237C59.6941 7.57009 54.0294 6.55575 52.246 6.5863C50.7206 6.6125 49.458 6.99474 47.966 7.23126C46.0136 7.3269 38.892 8.04113 37.8722 9.73331C36.4204 12.1447 36.0319 18.1694 35.7071 21.0446C35.6367 21.6692 35.4057 22.3292 35.342 22.8672C35.2399 25.8556 34.5332 28.8524 34.3624 31.7082Z" fill="#1F2937"/>
<path d="M56.5879 223.503C56.6549 223.361 56.8458 223.062 56.9362 222.998C57.0769 222.9 57.5172 222.057 57.5223 222.057C58.3863 222.034 59.5651 222.429 60.3588 222.085C61.0102 221.802 61.608 221.573 62.2627 221.406C62.8019 221.271 63.8234 221.775 64.2169 221.69C65.5531 221.404 67.0066 220.992 68.3763 220.96C68.5823 220.955 68.512 220.97 68.7179 221.179L68.5572 221.705L69.0428 221.745C69.5267 219.981 70.7474 220.722 72.3599 220.306C75.7826 219.423 78.7984 218.001 81.8995 216.35C82.3014 216.137 82.1959 215.314 83.3178 215.591C84.9655 215.065 85.6504 212.167 87.5693 211.815C87.8975 211.226 87.5174 209.734 87.6564 209.515C88.8955 207.57 88.6963 205.384 89.3175 203.291C89.8249 201.583 91.2465 198.559 90.8832 196.768L90.5332 196.636C90.7911 196.262 91.3135 195.449 91.5312 195.045C91.6199 194.551 91.3236 193.568 91.4525 193.137C92.1993 190.67 92.3818 188.113 92.844 185.593C93.0633 184.394 93.5523 183.146 93.7566 181.937C93.8504 181.387 93.4418 180.368 93.5841 179.746C93.9626 176.907 94.5771 174.089 95.1364 171.28C95.2586 170.662 95.2101 170.727 95.5784 170.497L96.0674 170.689L96.1193 170.422C95.4529 169.898 95.3942 169.894 95.349 169.078C95.7928 168.491 95.3473 169.122 96.2114 168.923C96.424 168.155 95.982 168.826 95.7677 168.075L96.0825 167.835C95.771 167.466 95.7425 167.484 95.699 166.987L95.8497 166.848C96.0624 166.962 96.2248 167.05 96.4441 167.149L96.635 166.992L96.5815 166.656L95.9719 166.394C95.8313 165.972 95.8263 166.176 95.9786 165.762C96.4693 165.655 96.7456 165.653 96.8946 165.146C96.5329 164.989 96.5296 165.009 96.2499 164.74C96.3387 164.239 96.5228 162.523 96.7389 162.283L97.2663 162.911C97.3082 162.442 96.9247 161.882 96.6886 161.439C96.7657 160.557 96.8862 158.409 97.2914 157.72L97.5845 157.665L97.988 158.048L98.1237 157.998C98.3547 157.511 98.3748 157.366 98.7985 157.072C98.6679 160.692 97.7034 164.193 97.1541 167.698C96.3102 173.084 95.5583 178.502 94.7914 183.9C93.9073 189.352 92.9026 194.668 92.1206 200.133C91.9532 201.086 91.0054 202.329 90.8396 203.341C90.4394 205.656 90.272 207.799 89.4816 210.043C88.785 211.982 87.6413 213.73 86.1443 215.148C84.8768 216.339 83.79 216.854 82.2662 217.769C74.7997 222.249 65.7373 222.957 57.2426 223.558C57.0852 223.569 56.7403 223.523 56.5879 223.503Z" fill="#1F2937"/>
<path d="M12.1895 186.593L12.9029 186.506C13.0301 186.154 12.6902 185.296 12.8359 184.503L13.067 184.338C13.3684 184.545 13.4655 184.546 13.5174 184.929C13.5392 185.097 13.5007 185.186 13.4622 185.346C13.206 186.416 15.6089 195.15 15.1601 196.325C14.9809 196.796 14.8955 196.985 15.0044 197.476C15.3861 197.627 15.6155 197.622 15.6993 197.915C16.0291 199.045 16.1547 200.325 16.2535 201.486C16.2837 201.842 17.136 203.398 17.2097 203.752C17.5529 205.379 17.563 207.207 18.0955 208.794C18.2244 209.178 18.926 209.792 19.1906 210.268C18.5627 210.759 18.3282 210.286 17.8929 210.747L18.077 211.074C18.4705 211.134 18.5493 211.069 18.9277 210.942C19.2793 211.263 19.2509 211.279 19.3547 211.727L19.2659 211.984L18.7954 212.109C19.3999 212.374 20.1618 212.087 20.4599 212.508C22.4475 215.329 23.2713 215.986 26.5232 217.083C27.8862 217.544 30.3963 219.275 31.9586 219.665C32.1394 219.74 32.6367 219.567 33.0838 219.712L32.9097 220.113L33.0822 220.278C33.4539 220.113 33.9278 219.839 34.2978 219.904C34.7047 220.168 35.1585 220.545 35.6173 220.538C35.7965 220.35 35.969 220.169 36.1816 220.017C36.2587 220.435 36.2369 220.567 36.2118 220.977L36.4027 221.052C36.9352 219.972 37.538 220.248 38.474 220.882C39.3716 221.491 41.2637 220.665 41.8431 221.593L41.7979 222.212C42.9382 222.845 42.7172 221.757 43.3987 223.032C34.5875 221.66 19.3899 219.308 16.8312 209.347C15.4381 203.923 14.0114 197.339 13.0184 191.792C12.7388 190.228 12.1812 188.145 12.1895 186.593Z" fill="#1F2937"/>
<path d="M5.68538 138.927C6.24466 139.378 6.59632 139.604 6.95801 140.239C7.03671 141.438 5.79255 140.721 7.17568 141.982C7.30462 142.611 7.20582 142.701 6.86255 143.301C7.15224 143.398 7.31299 143.396 7.61775 143.425C7.98111 143.974 7.81031 145.078 7.88231 145.779C7.93087 146.247 7.10033 145.989 7.11708 146.645L7.91749 147.018C8.07657 147.604 8.51528 150.415 8.31099 150.878C8.04307 150.804 7.87394 150.753 7.6144 150.656L7.5625 151.043C8.25406 151.706 8.52699 151.27 8.65593 152.994C8.69779 153.542 8.48179 154.74 8.64589 155.164C8.9339 155.341 9.15493 155.364 9.22861 155.738C9.7544 158.387 9.1767 161.757 10.4627 164.139C10.9985 165.129 10.4192 166.736 10.7725 167.79C12.1975 168.13 10.6955 169.192 11.0153 170.333C12.1389 174.358 13.0649 179.238 13.0598 183.376C13.0598 184.224 12.0468 184.014 12.0987 186.15C11.233 184.506 11.2213 178.439 10.8043 176.329C9.02265 167.311 7.5424 158.184 6.84581 149.008C6.65157 146.444 5.33709 141.192 5.68538 138.927Z" fill="#1F2937"/>
<path d="M96.5433 55.8651C97.4576 58.7661 98.9529 64.3557 100.619 66.8019C102.096 68.419 104.253 68.9743 105.117 71.1816C107.188 76.4684 107.106 82.3884 106.344 87.9443C106.178 89.1521 106.349 92.1815 105.154 92.9591C104.527 92.7937 104.423 92.7747 103.914 92.3818C104.01 92.0416 104.033 91.8907 104.09 91.5829C104.527 89.1493 105.264 90.2942 104.557 87.5998C104.834 87.2016 105.095 86.8988 105.406 86.5269L105.37 86.1273L104.859 85.799C104.716 84.6025 105.514 81.2924 105.385 79.8812C105.209 77.9683 104.298 73.5738 103.608 71.7389C102.782 70.6813 101.428 69.6351 100.462 68.7887C99.6377 68.0661 100.557 66.9908 99.7097 66.7301L99.3581 67.1559C97.8645 66.5919 96.4445 61.8043 96.1531 60.2789C95.9405 59.1717 95.1015 57.7593 95.2941 56.6898C95.6675 56.5526 95.9237 56.5096 96.3089 56.4316L96.5433 55.8651Z" fill="#1F2937"/>
<path d="M51.1992 0.0458984C52.2056 0.0999789 53.1718 0.102316 54.1647 0.0991444C59.4042 0.082286 69.7258 0.91419 73.3561 5.03365C73.8584 5.59983 74.2469 6.25781 74.4981 6.9712C75.3889 9.46074 77.1203 20.4504 77.2895 23.2479C76.6866 22.845 76.556 22.5068 76.2128 21.8857C76.2948 21.5694 76.2881 21.7218 76.2479 21.4299L76.0319 21.4826L75.6585 22.1553C75.2617 21.8957 75.4492 20.707 75.4408 20.2344C75.3923 17.5192 74.406 14.328 73.8635 11.619C73.5168 9.88187 73.9639 10.5242 73.8718 9.07934C73.6659 8.7128 71.8407 5.58547 71.618 5.43325C69.1866 3.77945 65.1394 2.54879 62.2224 2.23165C61.4103 2.14335 59.1865 1.78532 58.7194 1.54379L58.7043 1.21497L58.4766 1.16673C58.3761 1.26338 57.9005 1.70603 57.8352 1.72122C56.6882 1.99046 52.5221 1.84891 51.5626 1.57935C51.4588 0.958756 51.3834 0.648295 51.1992 0.0458984Z" fill="#1F2937"/>
<path d="M100.788 138.572C100.038 137.84 100.738 138.064 100.44 137.07C100.132 137.088 99.9859 137.072 99.6778 137.045L99.4601 136.707C99.4249 135.871 99.5924 134.855 100.023 134.127C100.775 133.977 100.865 133.917 101.104 133.179C100.816 132.999 100.329 133.255 99.6108 133.155L99.4434 132.924C100.312 130.036 99.9742 127.387 99.9675 124.417C99.9658 123.932 100.934 123.334 100.878 123.218C100.493 122.417 100.118 122.019 100.322 121.079C100.835 120.463 100.458 121.127 101.336 120.863L101.399 120.487L101.237 120.281L100.565 120.377L100.391 120.204C100.396 119.697 100.292 119.857 100.542 119.581C100.832 119.76 100.868 119.768 101.193 119.881C101.392 119.446 101.376 118.51 101.403 117.974C100.925 118.569 101.099 119.049 100.549 119.393C100.242 118.277 100.312 117.525 101.27 116.897L100.694 116.79C100.066 116.062 100.94 108.65 100.939 107.135C100.934 106.936 101.334 104.762 101.336 104.764C100.502 103.369 101.242 102.596 101.192 101.309C101.116 99.3774 101.068 97.4582 101.054 95.4971C101.434 95.1319 101.813 95.1796 102.344 94.8151C103.613 104.591 101.185 117.226 101.66 127.313C101.741 128.988 101.155 137.421 100.788 138.572Z" fill="#1F2937"/>
<path d="M29.5151 34.552C28.4217 31.3008 29.14 24.8924 29.6641 21.384C30.8514 13.4205 29.5185 3.09282 40.0644 2.01038L39.9924 2.75665C40.1883 2.88084 40.3859 3.00118 40.5852 3.11752L40.5048 3.32116C37.3065 3.90703 33.8956 4.97562 33.055 8.50821C31.5798 14.7043 30.9903 21.2647 30.7442 27.6008C30.7291 27.9997 29.8349 29.4868 29.5704 29.8777C29.773 30.23 29.6759 30.1875 29.9739 30.3704C30.066 29.9506 30.1296 29.665 30.2619 29.2568C31.0037 30.0125 30.2067 31.0319 30.7274 31.8608C30.7526 31.9831 30.7777 32.1057 30.8045 32.228L30.5583 32.4657L30.2452 32.3669L30.1916 32.1901C30.1313 31.9943 30.0844 31.8651 30.0108 31.677C29.6173 31.8681 29.7261 31.7214 29.5787 32.0446C30.123 32.6326 30.8497 33.2577 30.8262 34.0699C30.5717 34.5446 30.6538 34.3954 30.0962 34.6962L29.8902 34.602C29.8986 34.2058 29.9036 34.0262 29.8617 33.6246C29.4917 34.1006 29.8467 34.1499 29.5151 34.552Z" fill="#1F2937"/>
<path d="M96.3354 55.469C95.5585 55.6246 95.7443 55.8234 95.2185 55.9861C94.9942 55.5506 93.7952 53.4999 93.7835 53.3156C93.5725 49.8824 90.9955 47.6063 89.1786 44.8432C88.4703 43.7656 86.548 42.3423 85.7794 41.2183C85.6003 40.9562 85.91 40.4775 86.0256 40.2192L85.7443 39.9963C85.3776 40.1556 85.4278 40.2913 85.2001 40.7721C84.5052 40.5401 83.6076 39.131 82.767 38.9291C82.5812 39.1135 82.5996 39.0966 82.3735 39.2642C82.109 38.9516 80.3474 37.0092 80.3105 36.9029L80.4713 36.7927L81.3839 37.1331C81.7138 37.0766 81.7942 37.003 82.0571 36.7986C82.114 36.8633 82.1709 36.9283 82.2279 36.9932C88.0651 40.8668 93.3532 45.6631 95.5467 52.5278C95.8465 53.4675 96.2835 54.4415 96.3354 55.469Z" fill="#1F2937"/>
<path d="M29.5145 34.5519C29.0774 35.2504 29.0238 35.3825 28.3892 35.9021L28.5583 36.287C28.1012 36.9945 25.6598 37.5185 24.9213 38.1077C23.004 39.6359 21.0197 41.26 19.0187 42.6892C18.5984 42.9893 17.9755 44.6761 16.8553 45.0939L15.2109 44.9138C18.7743 40.8886 24.1896 35.8241 29.5145 34.5519Z" fill="#1F2937"/>
<path d="M2.16031 70.1213C2.22896 71.0542 2.06152 71.1208 3.02267 71.4411C2.98584 72.2921 2.51865 72.6009 2.29092 73.1136C1.35153 75.2314 1.89239 79.844 1.45032 82.1754L1.2745 82.1925C0.701819 82.2532 0.57958 82.2197 0.164306 82.5602C0.0487664 78.8388 -0.418409 73.4076 2.16031 70.1213Z" fill="#1F2937"/>
<path d="M77.8495 34.7326C77.3388 34.7015 77.2283 34.7329 76.8281 34.4091C76.3375 33.6535 76.0478 26.1177 75.9607 24.7128L75.6107 24.5604C75.4383 24.0747 75.6576 24.7008 76.0176 23.9325C76.3894 24.1385 76.9152 25.3384 77.163 25.8126L77.3221 25.8362L77.4125 24.6724C77.657 26.9904 78.4239 32.692 77.8495 34.7326Z" fill="#1F2937"/>
<path d="M40.5938 1.77894C41.6972 1.4366 49.5272 0.0790783 50.4833 0.268527L50.7311 1.37451C48.4069 2.77693 45.7361 1.76242 43.3901 2.54575C42.6031 2.80881 41.8998 3.15199 41.0844 3.09523L40.7411 2.87257L40.6959 2.64056C41.1162 2.32442 41.3992 2.27284 41.9065 2.10626C41.3473 2.02698 41.0861 2.02898 40.5938 1.77894Z" fill="#1F2937"/>
<path d="M0.423828 88.1332C0.649884 88.4233 0.944587 88.7394 1.04338 89.0794C1.10701 89.0484 1.05845 89.0792 1.18906 88.9525L1.47206 88.6818C1.44694 88.1999 1.32471 87.8235 1.57588 87.5389C2.18539 88.1066 2.02966 90.4636 2.57052 91.3147C3.29055 92.4504 4.42419 92.709 5.15427 93.8238C5.13082 94.1865 5.10739 94.2184 4.99185 94.5682C5.34349 95.8568 5.99988 96.4759 5.48078 97.4727L5.26477 97.5041C4.74233 96.8027 5.11742 96.7954 4.91816 95.8717C4.35888 96.9343 4.98681 98.1451 3.99383 98.6705C4.62009 95.4031 5.01695 94.7139 2.39972 93.6055C1.19408 93.0949 0.659931 89.5872 0.423828 88.1332Z" fill="#1F2937"/>
<path d="M13.7687 47.0367L14.0918 47.0836C14.5423 46.6798 14.9525 46.2487 15.4967 46.0065L15.7379 46.0754C15.8936 46.4476 15.7446 47.1911 15.5018 47.4972C15.1786 47.391 15.1937 47.4096 14.9626 47.1625C14.5691 47.9656 14.976 47.3578 14.8989 48.247C14.636 48.2757 14.3413 48.269 14.1404 48.3942C14.1588 49.6609 14.0969 49.0567 13.695 49.9016C13.1692 51.0102 13.8775 50.8492 12.6049 51.9166C12.5932 52.1428 12.568 53.3354 12.4877 53.423L12.4458 53.6281C12.3152 54.2509 12.3135 54.4415 11.9167 54.9451L11.6036 55.1134C11.3842 54.3197 11.6705 54.4033 11.1883 54.1292L10.2539 54.42C10.552 54.0122 11.9786 50.3169 12.337 49.5137C12.9314 48.1744 13.0821 48.1937 13.7687 47.0367Z" fill="#1F2937"/>
<path d="M4.50724 111.981C5.20718 113.253 4.19913 114.422 5.23732 115.507L5.80162 115.564C5.99921 116.141 5.97911 116.732 6.0059 117.348C5.67603 117.7 5.87027 117.556 5.35955 117.727C5.58728 118.002 5.61909 117.994 5.93389 118.178C6.02599 120.09 6.17168 122.599 6.49151 124.491L6.3676 124.683C5.44161 124.182 6.07455 123.238 4.80864 122.337C4.85385 121.417 4.56417 120.031 4.52733 119.006C4.44863 116.707 4.35486 114.269 4.50724 111.981Z" fill="#1F2937"/>
<path d="M8.20578 62.2717C8.10028 61.6189 9.8384 56.0214 10.2336 55.1803C10.2604 55.8278 10.1582 56.2781 10.4831 56.7206C10.6036 56.352 10.6371 56.5011 10.5249 56.227L10.5099 56.7112L10.6706 56.8101L10.9905 56.5921C11.4124 57.1347 9.57718 64.2321 8.62105 64.6499C8.11033 63.8921 8.53565 62.8943 8.20578 62.2717Z" fill="#1F2937"/>
<path d="M99.071 156.563C98.7378 156.436 98.4012 156.313 98.0647 156.194C97.9675 156.638 97.9843 156.615 97.7348 156.992L97.4635 156.887C97.3513 156.336 98.1819 148.434 98.2756 148.325L98.4615 148.708C98.9588 148.998 99.1598 148.845 99.8396 148.755C99.4428 149.943 99.0476 155.214 99.071 156.563Z" fill="#1F2937"/>
<path d="M3.99219 100.893C4.69045 101.09 4.62181 101.246 5.17942 101.672C6.35826 102.572 5.53607 104.361 5.33849 105.498C5.28992 105.785 6.30298 106.646 5.64491 107.385L4.85455 107.376C4.41751 108.046 5.14759 109.401 4.55984 109.929C4.4443 107.362 4.74738 103.014 3.99219 100.893Z" fill="#1F2937"/>
<path d="M5.40469 130.539C5.90369 131.368 5.29081 132.168 5.7312 132.904L6.26705 133.014C6.70912 133.872 6.96364 136.274 6.70074 137.17C6.48641 137.166 6.29383 137.172 6.08117 137.205C6.03428 137.702 6.00247 137.982 6.02424 138.477L5.67093 138.734C5.51185 136.99 4.84206 131.994 5.40469 130.539Z" fill="#1F2937"/>
<path d="M99.9962 146.324L99.889 145.798C98.6114 144.733 98.032 142.041 99.7132 141.617C99.8019 142.036 99.7768 142.252 99.7818 142.679L99.9827 142.745L100.457 142.249C100.371 142.956 100.152 145.798 99.9962 146.324Z" fill="#1F2937"/>
<path d="M3.63722 68.7316C4.58163 68.693 5.35525 67.574 6.36329 68.0312C6.33985 68.5271 5.90114 68.7816 5.45238 69.1919C4.84789 69.7327 4.2417 70.2702 3.63219 70.8045C3.13151 70.2316 3.96542 70.1572 2.80835 69.8986L2.64258 69.7255C2.92724 69.353 3.28892 69.049 3.63722 68.7316Z" fill="#1F2937"/>
<path d="M7.12771 65.0535L7.46596 65.1268L7.35711 64.9756L7.38391 65.1325L7.43583 64.8085L7.67192 64.8549L7.69036 65.3504L8.15585 65.6028C8.34172 66.4901 8.00181 67.2359 7.10261 67.5147C6.44788 67.3232 6.35913 67.1843 6.2168 66.5355C6.50816 66.0089 6.80286 65.5573 7.12771 65.0535Z" fill="#1F2937"/>
<path d="M22.5886 73.2896C25.6211 73.1712 29.7219 74.8788 32.8331 75.2174C33.2668 75.3859 36.7347 75.2473 36.9222 75.3373C38.9802 76.3224 39.5696 75.6259 41.522 75.7574C48.2083 76.2077 54.9665 76.2094 61.6628 76.2401C66.6545 76.263 71.899 75.4393 76.7885 74.5957C77.5069 74.3935 79.3589 74.7311 79.9332 74.5348C82.162 73.7735 84.3338 73.1811 86.5977 72.5591C88.7645 71.9641 88.6288 72.2609 90.6148 72.1838C90.9932 72.3997 91.2511 73.027 91.3432 73.4243C91.4386 73.8507 91.3532 74.2974 91.1071 74.6586C89.9567 76.3441 82.8954 77.8205 80.891 78.2651C79.8411 78.304 78.8247 78.4409 77.7915 78.5766C74.1596 79.054 70.4154 79.9239 66.7483 80.0907C64.5848 80.1892 61.6427 80.3963 59.6266 79.7123C59.4341 79.6475 57.84 80.289 57.4867 80.2034C55.0921 80.2882 52.6892 80.208 50.2914 80.3018C50.1658 80.1239 50.0686 79.988 49.9313 79.8168C47.1517 80.833 37.3995 79.3518 33.8947 79.1246C33.3757 79.0909 32.2722 78.5257 31.6928 78.4449C30.9426 78.3995 31.2122 78.9729 30.2293 78.9099L29.9748 78.4761C29.4624 78.3932 29.1794 78.6462 28.8981 78.5763C26.9422 78.0899 25.0467 77.194 22.9955 77.2293C22.4747 77.2383 21.2088 77.2773 20.8438 76.9582C21.3712 76.9028 21.5705 76.9261 22.1063 76.9675L22.2687 76.7908L22.0293 76.0488C22.3374 75.8604 22.4864 75.6955 22.7426 75.4491L22.7326 75.1455C22.0913 75.135 21.9707 75.9687 21.1653 76.0302C20.7634 75.1901 21.3026 75.8294 21.7446 75.1368L21.5236 74.597L21.7262 74.4792L21.9757 74.7224L22.2687 74.684C22.5551 74.3418 22.9436 73.9783 22.972 73.5631L22.5886 73.2896ZM41.5941 78.9638C41.939 78.284 42.2019 78.1874 42.8315 77.8335C42.3409 77.6055 41.934 77.5764 41.5036 77.3838L41.4551 77.5848C41.2441 78.43 41.1687 78.5788 40.6748 79.2995C41.2391 79.3736 40.9762 79.412 41.4969 79.1783L41.5941 78.9638ZM47.0529 78.8927C46.9692 78.183 46.9943 77.9839 47.1969 77.2985C46.9909 77.0098 47.0144 77.0181 46.6979 76.8617L46.6728 77.0198C46.5773 77.6063 46.5472 77.7609 46.3228 78.3044L46.3831 78.595C46.6577 78.7422 46.7548 78.813 47.0529 78.8927Z" fill="#1F2937"/>
<path d="M41.5046 77.3838C41.935 77.5764 42.3419 77.6055 42.8325 77.8335C42.2029 78.1873 41.94 78.284 41.5951 78.9638L41.4979 79.1783C40.9772 79.412 41.2401 79.3736 40.6758 79.2995C41.1698 78.5787 41.2451 78.43 41.4561 77.5848L41.5046 77.3838Z" fill="#1F2937"/>
<path d="M46.6974 76.8617C47.0138 77.0181 46.9904 77.0097 47.1963 77.2985C46.9937 77.9839 46.9686 78.183 47.0523 78.8927C46.7543 78.8129 46.6572 78.7422 46.3825 78.5949L46.3223 78.3043C46.5466 77.7609 46.5768 77.6063 46.6722 77.0198L46.6974 76.8617Z" fill="#1F2937"/>
<path d="M87.6737 59.1081C88.2765 60.1665 88.1962 62.9418 87.6436 64.0725C87.0408 65.3058 85.8686 66.9202 84.4587 67.2879C82.1195 67.8396 80.4701 68.5024 78.0404 67.6056C75.8987 66.8151 75.239 63.0201 75.7229 61.0221C75.8116 60.6511 75.5538 59.7183 75.4466 59.3172C74.9978 57.6384 74.4737 55.8866 73.6666 54.3445C72.4208 51.9943 70.1854 50.7523 69.8086 48.0134C70.2105 47.2658 70.2674 46.8298 70.5588 46.0896C70.9992 45.0959 72.1579 45.3039 72.6837 45.0483C77.8009 42.5608 81.6975 48.0129 84.2059 51.6059C84.1674 51.551 84.2661 52.1005 84.2594 52.1195C84.1154 52.5343 84.9159 52.3901 84.9912 52.7256C85.3194 53.364 85.0096 53.7106 85.3763 54.443L85.9138 54.5977C86.2605 54.9482 86.2839 56.048 86.6958 56.7452C86.2035 57.138 86.0143 57.2226 85.7648 57.7731C85.8234 58.2088 86.0662 58.374 86.3794 58.6968C86.5535 59.2541 86.1416 60.1623 85.9222 60.7605L85.9909 60.6626C86.2521 60.2999 86.6841 59.7712 86.9939 59.4429C87.0826 59.3493 87.441 59.412 87.6737 59.1081ZM82.9751 63.2235C83.5361 63.0254 83.5495 63.0134 83.9597 62.5949C84.9778 59.6771 81.1332 55.4979 80.8318 52.9177C80.1938 52.132 78.9731 51.6944 78.6633 50.9042C78.6147 50.7825 78.66 50.3162 78.4105 50.1506C77.3873 49.4713 76.0327 48.6143 74.8974 48.2413L74.2862 48.8593C74.3096 49.4235 77.3019 52.5131 77.7155 53.6795C78.5293 55.9761 79.3733 58.8091 79.6529 61.256C79.7969 62.5307 78.7688 62.7397 79.6613 63.651C80.5906 63.9231 82.1781 63.8431 82.9751 63.2235Z" fill="#1F2937"/>
<path d="M14.3398 73.4001C14.9326 73.1461 16.2002 72.5654 16.7712 72.5819C18.2649 72.625 21.1801 72.9047 22.5884 73.2896L22.9718 73.5632C22.9434 73.9783 22.5549 74.3418 22.2686 74.684L21.9755 74.7224L21.726 74.4792L21.5234 74.5971L21.7444 75.1369C21.3024 75.8294 20.7632 75.1901 21.1651 76.0302C21.9705 75.9688 22.0911 75.135 22.7324 75.1455L22.7424 75.4492C22.4862 75.6955 22.3372 75.8604 22.0291 76.0489L22.2686 76.7908L22.1061 76.9676C21.5703 76.9262 21.371 76.9028 20.8436 76.9582C17.7926 75.7811 16.8432 77.054 14.3398 73.4001Z" fill="#1F2937"/>
<path d="M87.6726 59.1081C87.4398 59.412 87.0815 59.3493 86.9927 59.4429C86.683 59.7712 86.2509 60.2999 85.9897 60.6626L85.9211 60.7605C86.1404 60.1623 86.5523 59.2541 86.3782 58.6968C86.0651 58.374 85.8223 58.2087 85.7637 57.7731C86.0132 57.2226 86.2024 57.138 86.6947 56.7452C87.3293 57.8038 87.2154 58.3877 87.6726 59.1081Z" fill="#1F2937"/>
<path d="M71.5475 214.402C72.9591 214.449 73.3509 214.559 74.7307 214.89L74.8295 215.063C74.1413 215.138 72.5388 215.811 72.2508 215.681C70.007 214.611 70.2029 215.404 68.8365 216.811C67.3998 218.293 65.454 216.292 64.5515 216.23L64.5029 216.719C63.5819 217.469 63.5267 217.656 62.6945 217.305C62.6107 217.27 61.6094 217.722 61.447 217.794C60.8408 217.542 61.3716 217.378 60.9162 217.058C60.5628 217.357 60.6281 217.467 60.459 217.998L60.1375 218.079C59.7172 217.883 59.6201 217.819 59.1496 217.739C58.5652 217.998 58.4948 218.044 57.8736 218.125C57.2289 217.862 57.4332 218.051 57.1201 217.408C56.3984 217.14 55.0169 217.16 54.2751 217.37C53.9134 217.627 53.8883 217.824 53.7309 218.241L53.674 218.397C52.9925 218.936 52.2992 218.869 51.6428 218.33C51.6361 217.434 51.7483 218.25 51.9643 217.579C50.5845 217.939 51.4335 219.209 48.1917 218.562C46.2962 218.185 44.759 217.944 42.8132 217.35C41.5976 216.978 38.6303 217.282 37.279 216.811C36.2191 216.539 35.2646 216.15 34.3152 215.566C32.9589 216.01 31.4769 215.088 30.129 214.558C29.9799 214.22 29.9883 214.204 29.7488 213.928L29.4508 214.431L29.0757 214.384C28.92 214.119 28.8329 213.983 28.6504 213.736C28.1229 213.771 28.0643 213.775 27.5502 213.678C27.2371 213.192 27.212 213.13 26.7816 212.762C26.0248 212.795 25.7635 212.903 25.2746 212.488C24.8292 210.974 24.1175 211.638 23.1581 210.909C22.1701 210.156 21.3178 208.03 22.0596 206.836C21.7799 206.736 21.4986 206.639 21.2156 206.546C21.2692 206.132 21.6008 205.951 21.9675 205.601C21.8637 205.232 21.7816 205.269 21.3479 204.998L21.1838 204.897C21.0867 204.324 21.1085 204.431 21.363 203.818C21.6192 203.202 20.7417 202.727 20.3767 201.939C19.6868 200.448 20.5023 200.43 20.7551 199.61C19.3854 199.395 19.0438 195.588 18.7709 194.434C18.7072 194.171 19.4491 193.197 19.4708 192.707C19.0254 192.87 19.2364 192.874 18.8245 192.768C17.9487 191.335 17.9922 190.325 18.7776 188.985C18.7508 188.432 18.8663 188.622 18.5616 188.322C18.2518 188.624 18.225 188.689 17.8214 188.868L17.582 188.522L17.5971 188.332C17.8934 185.059 15.8757 183.87 16.8586 179.322C16.7314 179.212 16.5622 179.135 16.4752 178.99C16.3094 178.714 15.8104 172.098 15.3984 171.515C14.5813 170.358 15.164 168.522 14.5846 167.089L14.5093 166.903C14.7102 166.339 14.8961 167.007 15.509 166.523C15.4035 166.194 15.0435 166.211 14.5344 165.832C14.295 165.207 14.4122 165.057 14.6064 164.416C14.4658 164.251 14.3385 164.154 14.151 164.049C13.2936 163.572 15.0116 158.763 13.8043 156.431C13.3371 156.343 13.2434 156.344 12.8231 156.094C12.592 155.583 12.5769 155.057 12.6791 154.508C12.957 153.004 11.8284 146.493 11.4349 144.664C11.2842 143.963 10.8539 143.033 10.8137 142.358C10.7835 141.87 11.1402 141.447 11.1251 140.942C11.1 140.092 10.6931 139.277 10.6462 138.409C10.6345 138.211 10.8807 138.026 11.013 137.878C10.7785 134.915 10.1472 132.017 10.231 129.07C10.2728 127.605 9.86259 127.69 9.69681 126.633C10.0066 126.274 10.0468 126.272 10.1824 125.804L9.74704 125.106C9.87597 124.141 9.90947 123.698 9.90277 122.661C9.92287 121.126 9.12079 118.827 9.48415 117.394C9.8944 115.881 9.06887 115.182 9.29158 113.332C9.50089 111.607 9.51596 108.802 9.14087 107.1C8.58662 104.592 8.5163 102.283 8.37899 99.7534L8.00391 99.5092C8.02233 99.5638 8.26846 96.9893 8.28521 96.9259C8.91984 96.7232 9.02032 96.7362 9.40043 96.2357C9.27651 95.8701 9.17772 95.6992 9.25475 95.321C10.4537 94.9277 10.2343 95.7895 11.4768 96.1247C12.8984 96.5081 14.4122 96.6608 15.8087 97.097C16.2206 97.2261 16.3998 97.3936 16.5672 97.7362L15.7166 98.006L15.6999 98.3153L16.2106 98.7608C14.0924 98.7013 11.5036 97.2745 9.78555 97.2305C9.55112 97.4837 9.45569 97.5172 9.53104 97.9312C10.1272 101.151 10.3967 104.513 10.5709 107.797L11.8686 130.773C12.0377 133.795 12.0913 137.091 12.4028 140.134C12.9152 145.113 14.0522 150.08 14.1995 155.129C14.2665 157.459 15.2879 160.479 15.4035 162.876C16.152 166.703 16.7113 170.4 17.5485 174.211C17.8298 175.494 17.9253 178.512 18.1329 180.093C18.7876 185.282 19.6148 190.45 20.6178 195.584C20.9996 197.634 21.9558 200.305 22.4079 202.511C22.9437 205.119 23.1162 207.996 24.5948 210.138C25.509 210.308 27.0043 211.513 27.9555 212.024C29.3151 212.755 30.7418 213.356 32.2154 213.821C36.0047 215.018 38.9703 215.242 42.6341 215.973C48.5283 217.151 52.0112 217.644 58.0159 216.619C62.5705 215.841 67.0515 216.06 71.5475 214.402Z" fill="#1F2937"/>
<path d="M94.3706 135.717C94.883 135.913 94.9784 135.967 95.4456 136.262C96.6864 140.131 92.47 156.293 93.6053 159.115C93.4178 159.519 93.5651 159.357 93.0879 159.551L92.4432 159.452L92.5638 159.424C91.5457 159.713 91.1857 162.767 91.4687 163.263C91.8706 162.939 91.8756 162.934 92.1854 162.52L92.4081 162.59C92.5789 164.708 91.3247 169.429 90.9948 171.645C90.8324 172.744 89.4258 173.892 89.5798 174.535C89.9733 174.423 90.1291 174.293 90.4657 174.074L90.6683 174.203C90.7235 174.633 89.8076 181.637 89.6585 182.123L89.4107 182.268C89.0909 181.994 89.0825 181.974 88.833 181.63L88.1934 181.465C88.6706 180.378 88.5651 176.448 88.7928 175.131C89.0608 173.573 89.6485 172.119 89.9114 170.534C90.1642 169.237 89.9566 167.396 90.2513 166.161C92.3361 157.386 92.7999 148.392 94.1261 139.5C94.2919 138.384 94.25 136.921 94.3706 135.717Z" fill="#1F2937"/>
<path d="M85.4217 197.229C86.0245 194.154 86.2924 190.914 87.0342 187.858C87.56 185.688 87.8363 183.657 88.1946 181.465C88.6216 182.151 88.4374 182.699 88.3905 183.481C88.8309 183.655 88.8376 183.643 89.2864 183.68C90.2375 185.032 88.558 186.993 88.3085 188.484C88.0071 190.295 87.2703 198.729 86.3929 199.884C86.0647 200.016 85.8269 200.108 85.487 200.218C86.1819 200.806 86.0697 200.537 86.2907 201.283C86.145 202.318 85.4552 203.01 85.281 203.832C85.0047 205.262 85.0332 206.643 84.8842 208.091C84.8557 208.368 83.496 210.108 83.496 210.146C83.4876 211.75 82.7626 211.082 81.644 211.747C80.9508 212.159 80.3178 213.034 79.3968 213.446L79.149 213.359L79.0017 212.853L78.8325 212.942L78.7371 213.386C77.8714 213.93 76.5067 214.876 75.4919 214.967L75.1821 214.823C75.2709 214.578 75.3161 214.441 75.43 214.205C74.5442 214.225 73.8493 214.262 72.9668 214.15C73.2699 213.923 73.2163 213.942 73.5763 213.823C77.9199 212.388 79.7351 212.219 82.8296 208.769C83.0539 205.983 84.1507 202.421 84.9076 199.734C85.1554 198.854 84.9043 198.621 85.3832 197.801L85.4217 197.229Z" fill="#1F2937"/>
<path d="M79.2441 41.8332C79.8788 41.812 79.9005 41.8314 80.4833 42.119L80.8048 41.4762C81.5332 41.4246 84.3061 44.5768 84.5322 45.3191C86.1732 45.6152 86.2737 46.0422 87.1745 47.6801C87.4458 48.1735 87.8678 48.6925 88.1976 49.1732C88.4187 49.8455 90.9304 53.2582 90.8819 53.762C90.7412 55.2364 91.0577 55.1232 91.6287 56.8648C92.5731 59.7577 92.7707 62.4501 94.2208 65.2738C94.0701 65.5651 93.988 65.7582 93.916 66.0783C94.7231 67.1129 97.7757 70.8244 97.7238 71.8149L97.4191 72.1682L97.5028 72.8943C96.5617 72.35 96.329 71.8297 95.619 71.0951C91.7241 66.9017 91.3943 60.4075 89.5289 55.1617C87.4977 49.4517 83.8791 45.6042 79.2441 41.8332Z" fill="#1F2937"/>
<path d="M34.666 101.688C34.9607 101.151 34.9122 101.238 35.3124 100.876C36.081 100.18 35.6406 100.068 36.8964 100.136C37.8174 100.185 38.7283 100.34 39.6125 100.6L40.1081 100.296C40.8801 100.529 41.5298 100.873 42.2464 101.052C42.9363 101.225 45.3627 100.429 45.8198 100.794C47.5479 102.175 50.5854 100.122 51.8446 101.534C52.6584 101.371 53.3232 100.945 54.0265 100.655C54.2777 100.552 55.7646 101.447 56.0342 101.564C56.0359 101.564 56.8966 100.823 56.8982 100.823C58.3835 100.65 62.0372 100.202 63.3299 100.363C63.5744 100.809 63.35 101.169 63.2328 101.827C61.8464 101.613 55.3761 102.702 53.1172 102.8C49.8838 103.066 46.8781 102.79 43.6396 102.565C41.5381 102.42 39.5756 101.816 37.4926 102.064C36.9015 102.134 36.2903 101.449 34.666 101.688Z" fill="#1F2937"/>
<path d="M74.2227 101.527C74.144 100.931 74.0301 100.548 74.2444 99.9959C75.3563 99.4336 78.7706 100.222 80.219 99.6829C81.1752 99.3277 82.7006 98.4589 83.4742 99.0927C83.9581 98.8051 84.3835 98.4998 84.844 98.1782C85.9022 98.158 86.9605 97.9283 88.0054 97.7365C88.2063 97.8535 88.3202 97.9769 88.4692 98.1552C88.8393 97.9804 88.8962 97.7339 89.0871 97.3516L89.1675 97.1891C89.6564 96.9026 90.1755 96.9449 90.7616 96.9597C91.7261 96.9844 93.7104 95.9065 94.6916 95.4543C96.4515 95.807 95.4669 95.1267 96.5386 95.106L96.7412 95.3915C96.7864 96.2647 96.7094 96.8644 96.3913 97.6778L96.1903 97.1483C95.1622 96.9577 91.3611 98.4835 89.9394 98.8696C86.562 99.7871 83.2364 100.346 79.8339 101.11C78.5864 101.39 75.1721 101.219 74.2227 101.527Z" fill="#1F2937"/>
<path d="M95.1035 122.114C95.281 120.836 95.3815 115.657 95.5456 114.985C96.0848 112.779 95.7951 98.7327 96.423 97.8529C96.5235 99.5272 96.9923 100.353 97.56 101.88C97.6973 102.249 97.1481 103.718 97.1531 104.179C97.1514 104.872 97.7124 105.792 97.5466 106.427C97.2033 106.573 97.1933 106.553 96.8902 106.765C96.989 107.24 97.3775 109.064 97.3423 109.461C97.1548 111.54 96.9455 113.587 96.8082 115.677C96.6625 117.87 96.6574 119.936 96.6139 122.125C96.6055 122.556 96.3158 123.186 96.1283 123.591C96.2171 124.127 96.5469 125.114 96.4465 125.509L96.0563 125.637C95.3011 124.977 95.9458 123.233 95.5707 122.214C95.338 122.138 95.3312 122.103 95.1035 122.114Z" fill="#1F2937"/>
<path d="M61.1133 7.19237C62.2821 6.63888 62.0661 7.33642 62.91 6.98673C62.5986 6.43792 62.5316 6.53272 62.5919 6.03231L62.9217 5.81799C64.0972 6.35513 65.41 7.10424 66.691 7.17401C68.4241 7.26832 69.8039 8.20521 70.3582 9.85049C70.0484 11.2422 71.1016 11.8855 70.976 12.3996C70.4955 14.3717 71.6525 15.3916 71.4901 17.3144C70.8823 18.1979 70.5809 18.474 70.76 19.5476C71.1435 19.1625 71.3561 18.483 71.5186 18.3358L71.763 18.5075L71.619 18.2976L71.3813 18.5189L71.8284 18.7963C71.9841 20.2583 71.4198 21.1191 72.1314 22.2184C72.3106 22.4963 72.329 22.7877 72.3408 23.1174C71.7915 24.1237 71.4081 23.1428 71.403 24.4864C71.4014 25.2843 71.4348 26.3674 71.3227 27.1424C71.1334 26.5256 71.0681 25.8653 70.9995 25.2289C70.5507 21.1169 70.2677 17.0013 69.4054 12.9466C69.263 12.2733 69.0453 10.3876 68.749 9.91025C67.607 8.07018 62.9921 7.82581 61.2958 7.25496L61.1133 7.19237Z" fill="#1F2937"/>
<path d="M17.2714 92.5376C17.2864 92.5439 23.1137 93.6945 23.3514 93.7098C25.9904 93.8799 29.043 93.8941 31.7875 94.2752C33.3331 94.4897 34.9255 95.1919 36.3974 95.0672L36.2501 95.6673C36.4778 96.1276 36.8713 96.144 37.4775 96.4831C36.9416 97.3231 33.658 96.0575 32.5779 95.9467C29.6911 95.6511 26.9633 95.5092 24.0648 95.4863C22.7269 95.4758 21.2617 94.1842 19.614 94.6728C20.0494 94.0034 20.2955 93.8604 20.1984 93.2019C19.6341 93.2159 19.336 93.3597 19.0279 93.8309L18.7734 94.2214L18.6428 94.4252C18.3765 94.4274 15.478 93.4899 15.3574 93.3869C15.4026 92.5224 16.5112 93.3568 17.2714 92.5376Z" fill="#1F2937"/>
<path d="M11.2701 70.434C9.22057 69.2017 11.4979 67.659 12.171 65.7353C13.0099 63.3364 15.2336 53.3224 16.6503 52.0693L16.8094 52.0999C16.6938 52.7547 16.5079 53.2017 16.7775 53.7074L17.3938 53.8104C16.6369 55.9526 15.9587 58.1213 15.3592 60.3126C14.3931 63.7599 13.5977 67.652 11.2701 70.434Z" fill="#1F2937"/>
<path d="M58.7324 42.5546C59.2498 41.838 58.9166 41.9517 59.4608 41.0929C61.8604 40.8312 62.9907 40.6715 65.3902 40.7866L65.6849 40.2478C67.7345 40.333 68.6722 39.8292 70.628 39.4413C71.1002 39.3473 71.0483 39.4438 71.405 39.7504C71.6595 39.5513 71.5523 39.6797 71.6193 39.2512C72.4164 38.4074 75.4237 37.8368 76.3296 38.6254C76.6528 38.9063 76.5959 38.9706 76.7349 39.3675C75.0805 38.9813 70.9294 41.3179 68.9987 41.6127C65.6313 42.1266 62.135 42.62 58.7324 42.5546Z" fill="#1F2937"/>
<path d="M6.66402 85.7875L6.2705 85.8843C6.21189 86.3205 6.21357 86.2948 6.00091 86.6842C5.65931 86.1315 5.85022 86.2682 5.30266 86.0514C4.66133 83.3207 4.94265 78.3459 5.09335 75.5404C5.14358 74.5952 9.3884 69.9035 10.3931 70.296L10.1017 70.6605C10.5237 70.9416 10.378 70.7622 10.584 71.1905L10.4718 71.3649C9.4621 72.9144 8.14259 73.2852 7.50795 74.1395C6.01766 76.1455 6.64225 83.0317 6.66402 85.7875Z" fill="#1F2937"/>
<path d="M41.4931 41.2427C42.0491 41.0334 42.1646 41.0018 42.754 40.9349C42.4627 40.6161 41.4898 40.8288 40.9707 40.181C41.1315 39.7922 40.9992 39.9376 41.4111 39.7573C41.8113 39.8453 42.9215 40.0751 43.2262 40.2162C45.5253 41.2834 54.4269 40.4185 55.8787 41.8264L55.9273 42.0799C56.6774 42.0888 56.3174 41.8396 57.4778 42.0883C57.6704 42.2893 57.6938 42.2889 57.8379 42.5229C54.3532 43.1414 44.9861 42.2475 41.4931 41.2427Z" fill="#1F2937"/>
<path d="M99.1738 74.272L99.8955 74.1939L100.006 73.8998C99.8202 73.5604 99.641 73.2183 99.4669 72.8729C99.9793 72.8085 99.7164 72.7938 100.269 73.0558C100.753 73.7933 101.528 77.0079 101.399 77.726L100.907 78.0566L100.852 78.4048C101.468 78.7128 101.408 78.5579 101.59 79.0404L101.461 79.2731C101.115 79.2971 100.84 79.2806 100.537 79.4442L100.741 79.8087C101.069 79.8538 101.116 79.8476 101.418 79.9923C101.5 80.8209 101.505 84.0836 101.265 84.774L101.069 84.7855C100.86 84.4284 100.646 84.0739 100.428 83.7222L100.539 83.8846L100.306 84.0592C100.261 85.6005 101.428 86.8657 101.287 87.6437C101.598 87.4905 99.2894 88.2753 99.6192 88.2054C99.8821 84.3176 100.162 77.9323 99.1738 74.272Z" fill="#1F2937"/>
<path d="M18.0566 99.3297L18.7047 98.7188L18.6913 97.8839C19.5553 97.443 20.8145 98.8697 21.8644 98.5185C22.1257 98.4312 22.6598 98.5524 22.9093 98.7176L22.9612 98.9373L22.3031 99.1003L22.1826 99.3702L22.3484 99.7206C23.199 99.9615 24.5704 98.3632 25.7677 98.5881C27.6448 98.9413 31.0457 98.7281 32.6649 99.8449L32.8474 100.156L32.7486 100.408L32.0001 100.647L31.8159 101.093C30.4345 100.792 28.9526 100.357 27.5443 100.318C24.2774 100.227 21.2784 100.036 18.0566 99.3297Z" fill="#1F2937"/>
<path d="M71.3862 27.4344C71.7294 27.3845 71.8215 27.3643 72.1648 27.3785C72.4026 28.9343 73.8494 31.5183 73.3906 32.7061C72.9803 33.0923 73.0004 33.0693 72.4394 33.1828L72.3674 33.4184L72.2301 33.8561C72.0895 34.3069 71.9572 34.3889 71.5854 34.6953L71.7546 34.9694C72.3122 34.7855 72.0409 34.7848 72.5952 34.9656L72.7141 35.1912C71.7713 36.3254 69.9444 36.1791 68.7003 36.5302C67.9836 36.7327 67.925 37.1735 66.9036 37.2732L66.4012 37.1189C66.2204 36.6411 66.2991 36.7406 66.4649 36.1311C65.4451 36.044 64.6514 36.3573 64.0234 35.8364C65.0047 35.5252 72.0778 34.9853 71.9053 33.3368C71.7161 31.5181 71.2505 29.4135 71.3862 27.4344Z" fill="#1F2937"/>
<path d="M40.8074 95.4911C43.217 96.0538 48.0948 95.748 50.7288 95.9701C51.0653 95.9985 52.8085 96.1986 52.914 96.1883L52.6812 96.4969C52.4083 96.5361 52.1337 96.5719 51.8591 96.6042C52.3279 97.1592 53.6943 96.3761 54.6371 97.2602C53.5955 97.9818 42.7549 97.2948 40.8845 97.0836C40.6534 96.6685 40.7974 96.0982 40.8074 95.4911Z" fill="#1F2937"/>
<path d="M15.893 92.3226L14.9871 92.3653C13.3461 92.4334 13.0095 93.595 11.4003 92.2714C9.48974 90.6995 6.95456 91.8699 5.17123 89.7917C5.15114 89.1804 5.1076 87.9452 5.33868 87.3993C5.73386 87.1177 6.22448 87.1993 6.73185 87.2097C6.59621 90.5294 7.77339 89.4612 10.4275 90.3532C11.2312 90.6231 11.9663 91.2255 12.7533 91.5312C13.6492 91.836 15.0491 91.7402 15.893 92.3226Z" fill="#1F2937"/>
<path d="M34.3625 31.7082C34.3139 31.9557 33.9589 32.8901 33.8116 33.0634L33.969 32.9716L33.8919 33.2244L33.6207 32.6751C33.2925 32.6788 33.4013 32.6731 33.0698 32.5156C32.7131 31.8317 33.8718 23.9613 34.0359 22.7458C34.4998 22.9421 34.3558 22.6651 35.342 22.8672C35.2399 25.8556 34.5333 28.8524 34.3625 31.7082Z" fill="#1F2937"/>
<path d="M23.1559 45.3698L23.1325 44.6828L22.9148 44.5406C22.5246 44.7107 22.2483 44.8507 21.8749 45.0514C21.6757 44.7441 21.7376 44.9215 21.823 44.4612C22.4509 43.8764 22.7708 44.1308 22.9566 43.9798C23.685 43.3861 25.2993 41.0359 26.108 40.8201C26.9319 40.8516 26.8884 41.1592 27.6904 41.3717C27.2316 41.8286 23.4138 45.2894 23.1559 45.3698Z" fill="#1F2937"/>
<path d="M67.0582 101.731C66.2829 100.029 64.868 101.458 63.8281 100.933L63.8164 100.65C65.5562 98.7934 66.0083 101.371 68.0997 100.214L68.6389 100.256L68.7796 100.462C68.6808 100.927 68.6121 101.292 68.5452 101.762C67.9072 101.898 67.7196 101.821 67.0582 101.731Z" fill="#1F2937"/>
<path d="M20.96 47.8483C20.8763 47.6074 20.7641 47.343 20.6686 47.1033C19.1398 48.6142 20.9784 47.2414 19.1666 47.8803L19.0527 47.7393C19.5752 47.091 20.7523 45.4939 21.4908 45.3884L21.7386 45.6947L21.68 46.0397C21.3786 46.348 21.0571 46.583 20.9985 46.9846L21.4807 47.2489L20.96 47.8483Z" fill="#1F2937"/>
<path d="M97.0823 96.4984C97.3904 96.6416 97.2865 96.58 97.5327 96.8256C97.6633 97.7361 97.6734 98.3488 97.5344 99.2574L97.2263 99.2937L97.0672 99.1857C97.0253 98.2697 97.0571 97.4138 97.0823 96.4984Z" fill="#1F2937"/>
<path d="M99.1895 138.327L99.6432 138.479C100.154 139.034 100.186 140.506 99.7152 141.045L99.5377 140.866C99.6014 140.747 99.6533 140.636 99.7404 140.533L99.655 140.168L99.5964 140.216C99.3217 139.408 99.2949 139.161 99.1895 138.327Z" fill="#1F2937"/>
<path d="M65.6288 36.6522L65.8699 36.9899L65.6354 37.2314C64.959 37.4124 64.83 37.3628 64.1368 37.2086L63.9928 37.2206L63.8086 36.9587C64.2306 36.6325 64.9908 36.6988 65.6288 36.6522Z" fill="#1F2937"/>
<path d="M35.7742 10.2898C36.3452 10.8919 36.0488 11.8548 35.9333 12.6198C35.739 12.5358 35.7239 12.4911 35.5565 12.347C35.3656 11.6565 35.6067 11.0134 35.7742 10.2898Z" fill="#1F2937"/>
<path d="M5.26509 109.745L5.72057 110.039C5.89639 110.743 5.86457 110.882 5.77917 111.61L5.50958 111.642L5.07422 111.601C5.37898 111.37 5.09262 110.505 5.26509 109.745Z" fill="#1F2937"/>
<path d="M5.07465 98.0367C5.27894 98.1199 5.31243 98.1751 5.4916 98.3157C5.69756 98.9531 5.59708 99.1581 5.45475 99.8246C5.17678 99.7643 5.23372 99.7563 4.9792 99.5852C4.74644 99.0751 4.94237 98.6171 5.07465 98.0367Z" fill="#1F2937"/>
<path d="M44.7656 223.124L45.0469 222.92C46.0048 223.14 45.9076 223.257 46.4183 222.338C47.0044 222.074 50.4003 222.568 51.271 222.665C51.5255 223.002 51.4318 222.812 51.4954 223.281L51.8002 223.257L51.8454 222.8C52.269 222.484 54.2667 222.269 54.8176 222.286L55.2764 222.578L55.2312 222.775L54.6401 223.057L54.7406 223.336C55.7151 223.681 55.9177 222.598 56.3916 223.658C54.2181 224.04 46.3916 224.309 44.7656 223.124Z" fill="#1F2937"/>
</g>
<defs>
<clipPath id="clip0_30623_3305">
<rect width="107" height="224" fill="white"/>
</clipPath>
</defs>
</svg>
