<svg width="204" height="202" viewBox="0 0 204 202" fill="none" xmlns="http://www.w3.org/2000/svg">
<path d="M159.184 0.967899C161.786 0.748894 162.592 0.929892 165.079 1.57655C169.028 0.180787 174.086 2.33877 175.578 5.60476C180.243 15.8136 167.656 27.0974 161.457 33.9781C160.603 34.9262 158.915 36.4378 158.72 37.3004C160.969 38.0387 163.336 34.787 166.041 34.0049C167.136 33.2946 171.107 33.1055 171.935 32.6228C177.293 29.4978 182.761 29.5582 188.952 29.6495C195.599 29.7477 197.949 32.9192 202.268 37.6266C202.538 39.6222 203.01 40.992 203.502 42.9307C204.182 45.2615 203.143 50.4732 201.831 52.5993C200.573 54.6371 197.067 57.3381 195.816 60.0385C195.466 60.7929 191.857 64.4375 191.001 65.1407C187.76 68.2745 183.655 70.6855 180.24 73.4406C175.349 77.3868 170.7 79.1433 165.458 82.3195C160.139 85.5427 155.011 89.1713 149.481 92.0707C147.834 92.9337 146.222 94.2875 144.537 95.128C140.61 96.9079 136.699 98.4169 132.916 100.542C131.742 101.202 129.883 101.705 128.601 102.284C126.367 103.293 124.216 104.511 121.899 105.292C122.811 106.939 124.648 108.985 125.903 110.522C136.29 123.248 135.646 143.166 127.376 156.813C122.36 165.092 109.096 174.557 99.1589 176.314C99.6101 182.279 101.049 193.42 97.5336 198.505C96.5911 199.896 95.1207 200.838 93.467 201.108C87.9708 202.016 79.14 195.064 74.5172 191.788C73.4608 191.146 72.9043 190.636 71.9842 189.835C71.2345 190.067 70.481 190.287 69.7244 190.496C66.5059 191.364 64.804 190.656 62.0624 189.068C59.7576 190.682 57.5116 192.18 55.0116 193.364C38.6208 201.125 37.916 191.463 38.6429 177.819C38.8789 173.392 39.9553 170.923 42.996 167.51C39.9318 166.844 38.5543 165.546 35.9375 164.494C31.3947 162.669 28.7147 160.915 24.803 158.199C19.6428 154.617 14.5553 151.834 11.0039 146.338C10.1097 145.026 8.76722 143.625 8.17375 142.126C5.76261 136.038 4.34718 131.804 6.52584 125.438C2.34536 121.839 0.716356 117.255 1.98858 111.837C4.68447 100.357 22.2815 98.6927 27.6341 108.565C32.3308 104.917 32.0546 102.512 34.8771 97.6031C36.773 94.306 42.5185 87.8389 45.8852 85.9514C48.2075 84.6496 48.7174 85.2258 51.5155 83.0046C53.006 82.8939 54.441 82.4943 55.9198 82.344C59.7164 81.9577 66.4949 82.7928 69.9394 82.028C70.9827 78.3212 73.0783 72.6032 75.0189 69.2362C76.9447 65.895 79.4188 61.9193 81.4009 58.5414C83.7566 54.5269 87.8265 50.3387 90.6341 46.5179C92.1336 44.4773 94.9986 42.3807 96.6201 40.3359C99.0159 37.2968 100.729 35.3871 103.675 32.8368C106.417 30.4628 108.912 27.6409 111.842 25.4097C114.416 23.4498 117.016 22.0502 119.722 20.3416C122.125 18.5229 125.026 15.2147 127.945 13.569C131.498 11.5654 132.601 11.7526 135.931 9.04447C137.242 8.97526 138.147 8.81132 139.429 8.58588C143.304 4.26441 153.745 2.08232 159.184 0.967899ZM54.5489 89.5496C51.8206 91.3682 51.5596 91.2921 48.2782 91.7508C46.1241 95.9964 43.742 96.8202 41.3672 100.478C39.4316 103.664 38.5015 107.037 36.1977 110.035C35.0683 111.504 30.8635 114.483 30.3604 115.663C26.406 124.941 25.1246 126.734 15.0816 128.707C14.2754 128.341 13.4614 127.993 12.6401 127.663C12.5577 128.668 12.3352 130.199 12.3662 131.147C12.5342 136.302 15.2946 140.503 18.5148 144.259C21.8536 148.152 25.4564 150.211 29.8651 152.558C30.8364 153.075 32.204 154.815 33.4096 155.03C37.9032 154.849 38.4233 148.556 37.7871 145.381C36.632 144.301 35.1193 143.167 35.1036 141.517C35.092 140.327 35.6248 138.86 36.4496 138.008C36.9917 137.441 37.7394 137.12 38.5213 137.118C43.4315 137.072 45.5082 144.752 45.3908 148.752C45.2731 152.755 43.9306 155.757 41.5578 158.896C43.7799 160.971 46.6486 161.362 49.4454 162.394C54.1187 164.092 58.8996 165.456 63.6487 166.904C65.3064 167.41 67.3924 167.497 68.9514 167.987C73.3872 169.379 77.1586 170.172 81.8647 169.898C84.7189 169.732 86.6828 167.853 89.2748 166.823C90.9238 166.191 92.1788 166.006 93.9284 165.802C96.1682 166.743 96.7723 167.323 97.9524 169.531C106.57 167.082 118.154 158.946 122.431 151.221C122.807 150.544 123.15 149.849 123.457 149.137C128.083 137.093 128.089 125.268 120.365 114.706C116.031 108.78 107.35 103.389 118.972 98.8395C121.602 97.7872 124.356 96.223 126.87 95.2638C131.225 93.6024 134.378 91.7467 138.42 89.64C148.568 84.475 158.472 78.8394 168.099 72.7511C170.428 71.3011 173.083 69.5303 175.427 68.2746C178.643 66.7102 180.935 64.4818 183.533 62.0727C184.857 60.8454 187.028 59.7159 188.278 58.3356C190.809 55.5395 192.929 52.0906 195.437 49.2065C195.837 48.7463 196.709 46.8247 197.007 46.2149C196.772 44.7803 196.538 42.8539 196.26 41.4819C192.518 37.672 189.776 36.3537 184.309 36.5097C182.629 36.5576 179.287 36.6342 177.741 37.5286C173.106 40.2098 168.448 40.4772 163.711 43.3083C160.676 44.6538 156.997 45.7063 154.143 47.4655C149.467 50.3489 144.643 53.0083 140.01 55.979C133.885 59.9071 127.991 64.6786 121.875 68.6816C118.621 70.8108 115.397 74.4163 111.872 76.4665C108.663 78.9598 108.291 80.0851 104.261 81.4333C101.448 79.9308 101.801 78.9899 101.421 75.9573C107.34 70.4283 113.536 65.9578 119.689 60.7581C123.954 57.1529 128.714 53.8081 132.829 50.0118C137.092 46.2015 141.062 42.4743 145.714 39.1239C146.54 38.529 148.278 36.4452 149.106 35.606L156.207 28.5284C158.276 26.4688 171.537 14.3327 169.341 9.18737C168.977 8.33573 162.488 7.81338 160.927 7.86677C153.184 9.58625 147.591 10.4577 141.107 15.3679C140.714 15.6651 138.715 15.5709 138.186 15.5914C136.873 16.4195 135.353 17.9266 134.041 18.7079C117.821 28.3843 103.601 41.098 92.1504 56.1589C90.6175 58.1722 88.8559 60.0886 87.5303 62.2328C84.3306 67.4077 81.1099 72.5153 78.6824 78.12C78.3134 78.9716 77.8813 79.9511 77.4677 80.7918C76.4202 82.9204 75.9615 85.2082 74.7402 87.244C74.0419 88.4076 71.5179 88.8818 70.2199 89.1606C67.8059 89.6177 65.1229 89.0065 62.6734 89.0386C59.9939 89.0869 57.2133 89.6847 54.5489 89.5496ZM59.612 173.478C60.4958 174.767 62.1588 175.702 63.6786 174.906L63.6514 174.177C62.979 173.871 60.3946 173.471 59.612 173.478ZM68.0247 185.654C71.5332 184.073 70.2377 178.963 67.1349 179.556C66.5622 179.635 65.4845 179.642 65.2095 180.158C63.7524 182.891 65.2206 185.272 68.0247 185.654ZM45.5428 172.541C43.1647 176.413 43.4249 186.462 44.856 190.7C48.1201 190.234 52.0232 188.737 54.8004 186.992C57.3483 185.574 59.8153 185.044 59.435 181.786C59.3545 181.096 59.464 180.301 59.577 179.611C56.01 177.397 49.9172 172.649 45.5428 172.541ZM82.3405 177.033C79.4388 179.004 78.0446 179.394 75.7195 180.856C75.6013 181.894 75.1599 184.733 75.3538 185.568C78.19 187.575 86.5006 193.469 89.1786 194.717C90.5916 195.257 92.5717 196.619 93.6653 194.505C94.6839 192.536 94.3641 178.155 93.3438 177.126C91.9886 176.971 90.926 177.412 89.6227 177.404C87.3022 177.389 84.6358 177.087 82.3405 177.033Z" fill="#1F2937"/>
<path d="M61.3102 104.231C65.9281 105.107 65.5201 112.711 59.5012 113.495C59.3491 113.443 59.1975 113.389 59.0466 113.334C56.7401 112.488 55.6196 110.617 56.5861 108.192C57.5222 105.842 59.1667 105.171 61.3102 104.231Z" fill="#1F2937"/>
</svg>
